<svg xmlns="http://www.w3.org/2000/svg" viewBox="0 0 800 500">
  <defs>
    <linearGradient id="sky" x1="0" y1="0" x2="0" y2="1"><stop stop-color="#b9e8e2"/><stop offset="1" stop-color="#f6ecc4"/></linearGradient>
    <linearGradient id="sea" x1="0" y1="0" x2="1" y2="1"><stop stop-color="#1d8f91"/><stop offset="1" stop-color="#63c5ba"/></linearGradient>
    <linearGradient id="sand" x1="0" y1="0" x2="1" y2="0"><stop stop-color="#f3d8a0"/><stop offset="1" stop-color="#fff0c8"/></linearGradient>
  </defs>
  <rect width="800" height="500" fill="url(#sky)"/>
  <circle cx="625" cy="105" r="54" fill="#fff8ca" opacity=".9"/>
  <path d="M0 208c170-17 259 22 401 4 171-22 249-17 399 11v277H0V208Z" fill="url(#sea)"/>
  <path d="M0 335c109-33 210-15 301 7 129 31 218-1 325-16 69-10 126-3 174 9v165H0V335Z" fill="url(#sand)"/>
  <path d="M0 311c114-24 206-3 303 14 118 21 214-11 323-19 63-5 121 2 174 13" fill="none" stroke="#fff" stroke-width="13" opacity=".85"/>
  <path d="M0 170 108 95l89 83 87-44 119 82H0v-46Z" fill="#337c6f" opacity=".65"/>
  <path d="M-10 430c75-75 135-86 204-45-28 30-41 69-44 115H0L-10 430Z" fill="#226553"/>
  <path d="M111 409c-7-67 7-122 43-165M146 294c-30 1-55-10-76-33M151 320c33-9 57-28 72-56" fill="none" stroke="#164c3f" stroke-width="12" stroke-linecap="round"/>
  <g fill="#348664"><path d="m71 253 78 26-43-62Z"/><path d="m160 263-2 70 57-53Z"/><path d="m126 329-72 13 56 42Z"/></g>
  <g fill="#f8df8b"><ellipse cx="536" cy="405" rx="45" ry="14"/><ellipse cx="601" cy="374" rx="25" ry="9"/></g>
</svg>
