<svg xmlns="http://www.w3.org/2000/svg" viewBox="0 0 800 500">
  <defs><linearGradient id="s" x1="0" y1="0" x2="0" y2="1"><stop stop-color="#72567e"/><stop offset=".5" stop-color="#e9937c"/><stop offset="1" stop-color="#f4c98e"/></linearGradient><linearGradient id="r" x1="0" y1="0" x2="0" y2="1"><stop stop-color="#324a58"/><stop offset="1" stop-color="#182f35"/></linearGradient></defs>
  <rect width="800" height="500" fill="url(#s)"/>
  <circle cx="665" cy="93" r="45" fill="#ffe5a2" opacity=".9"/>
  <g fill="#344c59"><path d="M0 170h124v330H0z"/><path d="M141 224h112v276H141z"/><path d="M268 131h148v369H268z"/><path d="M432 195h116v305H432z"/><path d="M565 152h134v348H565z"/><path d="M713 240h87v260h-87z"/></g>
  <g fill="#ffd883"><path d="M24 202h20v28H24zm46 0h20v28H70zm-46 55h20v28H24zm46 0h20v28H70zm95 2h18v25h-18zm43 0h18v25h-18zm84-91h22v29h-22zm47 0h22v29h-22zm-47 57h22v29h-22zm47 0h22v29h-22zm117 7h19v27h-19zm47 0h19v27h-19zm78-43h20v27h-20zm47 0h20v27h-20zm-47 56h20v27h-20zm47 0h20v27h-20z"/></g>
  <path d="M279 500 387 303l126 197H279Z" fill="url(#r)"/>
  <path d="m375 500 40-145 44 145h-84Z" fill="#55726e"/>
  <path d="M415 356v144" stroke="#f7d878" stroke-width="6" stroke-dasharray="20 20"/>
  <g fill="#173b39"><circle cx="137" cy="404" r="48"/><rect x="128" y="404" width="18" height="96" rx="9"/><circle cx="687" cy="411" r="53"/><rect x="678" y="411" width="18" height="89" rx="9"/></g>
</svg>
